<?xml version="1.0" encoding="UTF-8" standalone="no"?>
<svg
   xmlns:dc="http://purl.org/dc/elements/1.1/"
   xmlns:cc="http://creativecommons.org/ns#"
   xmlns:rdf="http://www.w3.org/1999/02/22-rdf-syntax-ns#"
   xmlns:svg="http://www.w3.org/2000/svg"
   xmlns="http://www.w3.org/2000/svg"
   xmlns:sodipodi="http://sodipodi.sourceforge.net/DTD/sodipodi-0.dtd"
   xmlns:inkscape="http://www.inkscape.org/namespaces/inkscape"
   viewBox="0 0 990 765"
   height="765"
   width="990"
   xml:space="preserve"
   version="1.1"
   id="svg2"
   inkscape:version="0.91 r13725"
   sodipodi:docname="commuterPainIndexRemake.svg"><sodipodi:namedview
     pagecolor="#ffffff"
     bordercolor="#66666f"
     borderopacity="0.94117647"
     objecttolerance="10"
     gridtolerance="10"
     guidetolerance="10"
     inkscape:pageopacity="1"
     inkscape:pageshadow="2"
     inkscape:window-width="1268"
     inkscape:window-height="827"
     id="namedview172"
     showgrid="false"
     inkscape:zoom="0.30849673"
     inkscape:cx="965.02118"
     inkscape:cy="382.5"
     inkscape:window-x="0"
     inkscape:window-y="0"
     inkscape:window-maximized="0"
     inkscape:current-layer="svg2"
     showborder="true" /><metadata
     id="metadata8"><rdf:RDF><cc:Work
         rdf:about=""><dc:format>image/svg+xml</dc:format><dc:type
           rdf:resource="http://purl.org/dc/dcmitype/StillImage" /><dc:title></dc:title></cc:Work></rdf:RDF></metadata><defs
     id="defs6"><clipPath
       id="clipPath20"
       clipPathUnits="userSpaceOnUse"><path
         id="path22"
         d="m 102.805,58 98.195,0 0,-26 -98.195,0 0,26 z" /></clipPath><clipPath
       id="clipPath30"
       clipPathUnits="userSpaceOnUse"><path
         id="path32"
         d="M 102.805,85 214,85 l 0,-26 -111.195,0 0,26 z" /></clipPath><clipPath
       id="clipPath40"
       clipPathUnits="userSpaceOnUse"><path
         id="path42"
         d="m 102.805,112 111.195,0 0,-25 -111.195,0 0,25 z" /></clipPath><clipPath
       id="clipPath50"
       clipPathUnits="userSpaceOnUse"><path
         id="path52"
         d="m 102.805,140 124.195,0 0,-26 -124.195,0 0,26 z" /></clipPath><clipPath
       id="clipPath60"
       clipPathUnits="userSpaceOnUse"><path
         id="path62"
         d="m 102.805,167 150.195,0 0,-26 -150.195,0 0,26 z" /></clipPath><clipPath
       id="clipPath70"
       clipPathUnits="userSpaceOnUse"><path
         id="path72"
         d="m 102.805,194 156.195,0 0,-25 -156.195,0 0,25 z" /></clipPath><clipPath
       id="clipPath80"
       clipPathUnits="userSpaceOnUse"><path
         id="path82"
         d="m 102.805,222 163.195,0 0,-26 -163.195,0 0,26 z" /></clipPath><clipPath
       id="clipPath90"
       clipPathUnits="userSpaceOnUse"><path
         id="path92"
         d="m 102.805,249 163.195,0 0,-25 -163.195,0 0,25 z" /></clipPath><clipPath
       id="clipPath100"
       clipPathUnits="userSpaceOnUse"><path
         id="path102"
         d="m 102.805,277 208.195,0 0,-26 -208.195,0 0,26 z" /></clipPath><clipPath
       id="clipPath110"
       clipPathUnits="userSpaceOnUse"><path
         id="path112"
         d="m 102.805,304 234.195,0 0,-26 -234.195,0 0,26 z" /></clipPath><clipPath
       id="clipPath120"
       clipPathUnits="userSpaceOnUse"><path
         id="path122"
         d="m 102.805,331 234.195,0 0,-25 -234.195,0 0,25 z" /></clipPath><clipPath
       id="clipPath130"
       clipPathUnits="userSpaceOnUse"><path
         id="path132"
         d="m 102.805,359 312.195,0 0,-26 -312.195,0 0,26 z" /></clipPath><clipPath
       id="clipPath140"
       clipPathUnits="userSpaceOnUse"><path
         id="path142"
         d="m 102.805,386 325.195,0 0,-25 -325.195,0 0,25 z" /></clipPath><clipPath
       id="clipPath150"
       clipPathUnits="userSpaceOnUse"><path
         id="path152"
         d="m 102.805,414 338.195,0 0,-26 -338.195,0 0,26 z" /></clipPath><clipPath
       id="clipPath160"
       clipPathUnits="userSpaceOnUse"><path
         id="path162"
         d="m 102.805,441 487.195,0 0,-26 -487.195,0 0,26 z" /></clipPath><clipPath
       id="clipPath170"
       clipPathUnits="userSpaceOnUse"><path
         id="path172"
         d="m 102.805,468 526.195,0 0,-25 -526.195,0 0,25 z" /></clipPath><clipPath
       id="clipPath180"
       clipPathUnits="userSpaceOnUse"><path
         id="path182"
         d="m 102.805,496 545.195,0 0,-26 -545.195,0 0,26 z" /></clipPath><clipPath
       id="clipPath190"
       clipPathUnits="userSpaceOnUse"><path
         id="path192"
         d="m 102.805,523 630.195,0 0,-25 -630.195,0 0,25 z" /></clipPath><clipPath
       id="clipPath200"
       clipPathUnits="userSpaceOnUse"><path
         id="path202"
         d="m 102.805,551 643.195,0 0,-26 -643.195,0 0,26 z" /></clipPath><clipPath
       id="clipPath210"
       clipPathUnits="userSpaceOnUse"><path
         id="path212"
         d="m 102.805,577.445 643.195,0 0,-25.445 -643.195,0 0,25.445 z" /></clipPath></defs><g
     transform="matrix(1.25,0,0,-1.25,0,765)"
     id="g10"><g
       id="g16"><g
         clip-path="url(#clipPath20)"
         id="g18"><path
           id="path24"
           style="fill:#bdbdbd;fill-opacity:1;fill-rule:nonzero;stroke:none"
           d="m 102.805,57.059 97.328,0 0,-24.648 -97.328,0 0,24.648 z" /></g></g><g
       id="g26"><g
         clip-path="url(#clipPath30)"
         id="g28"><path
           id="path34"
           style="fill:#bdbdbd;fill-opacity:1;fill-rule:nonzero;stroke:none"
           d="m 102.805,84.445 110.305,0 0,-24.648 -110.305,0 0,24.648 z" /></g></g><g
       id="g36"><g
         clip-path="url(#clipPath40)"
         id="g38"><path
           id="path44"
           style="fill:#bdbdbd;fill-opacity:1;fill-rule:nonzero;stroke:none"
           d="m 102.805,111.836 110.305,0 0,-24.648 -110.305,0 0,24.648 z" /></g></g><g
       id="g46"><g
         clip-path="url(#clipPath50)"
         id="g48"><path
           id="path54"
           style="fill:#bdbdbd;fill-opacity:1;fill-rule:nonzero;stroke:none"
           d="m 102.805,139.223 123.281,0 0,-24.648 -123.281,0 0,24.648 z" /></g></g><g
       id="g56"><g
         clip-path="url(#clipPath60)"
         id="g58"><path
           id="path64"
           style="fill:#bdbdbd;fill-opacity:1;fill-rule:nonzero;stroke:none"
           d="m 102.805,166.613 149.234,0 0,-24.648 -149.234,0 0,24.648 z" /></g></g><g
       id="g66"><g
         clip-path="url(#clipPath70)"
         id="g68"><path
           id="path74"
           style="fill:#feb24c;fill-opacity:1;fill-rule:nonzero;stroke:none"
           d="m 102.805,194 155.723,0 0,-24.648 -155.723,0 0,24.648 z" /></g></g><g
       id="g76"><g
         clip-path="url(#clipPath80)"
         id="g78"><path
           id="path84"
           style="fill:#bdbdbd;fill-opacity:1;fill-rule:nonzero;stroke:none"
           d="m 102.805,221.391 162.211,0 0,-24.648 -162.211,0 0,24.648 z" /></g></g><g
       id="g86"><g
         clip-path="url(#clipPath90)"
         id="g88"><path
           id="path94"
           style="fill:#bdbdbd;fill-opacity:1;fill-rule:nonzero;stroke:none"
           d="m 102.805,248.777 162.211,0 0,-24.648 -162.211,0 0,24.648 z" /></g></g><g
       id="g96"><g
         clip-path="url(#clipPath100)"
         id="g98"><path
           id="path104"
           style="fill:#bdbdbd;fill-opacity:1;fill-rule:nonzero;stroke:none"
           d="m 102.805,276.168 207.629,0 0,-24.648 -207.629,0 0,24.648 z" /></g></g><g
       id="g106"><g
         clip-path="url(#clipPath110)"
         id="g108"><path
           id="path114"
           style="fill:#bdbdbd;fill-opacity:1;fill-rule:nonzero;stroke:none"
           d="m 102.805,303.559 233.582,0 0,-24.648 -233.582,0 0,24.648 z" /></g></g><g
       id="g116"><g
         clip-path="url(#clipPath120)"
         id="g118"><path
           id="path124"
           style="fill:#bdbdbd;fill-opacity:1;fill-rule:nonzero;stroke:none"
           d="m 102.805,330.945 233.582,0 0,-24.648 -233.582,0 0,24.648 z" /></g></g><g
       id="g126"><g
         clip-path="url(#clipPath130)"
         id="g128"><path
           id="path134"
           style="fill:#bdbdbd;fill-opacity:1;fill-rule:nonzero;stroke:none"
           d="m 102.805,358.336 311.445,0 0,-24.648 -311.445,0 0,24.648 z" /></g></g><g
       id="g136"><g
         clip-path="url(#clipPath140)"
         id="g138"><path
           id="path144"
           style="fill:#bdbdbd;fill-opacity:1;fill-rule:nonzero;stroke:none"
           d="m 102.805,385.723 324.422,0 0,-24.648 -324.422,0 0,24.648 z" /></g></g><g
       id="g146"><g
         clip-path="url(#clipPath150)"
         id="g148"><path
           id="path154"
           style="fill:#bdbdbd;fill-opacity:1;fill-rule:nonzero;stroke:none"
           d="m 102.805,413.113 337.398,0 0,-24.648 -337.398,0 0,24.648 z" /></g></g><g
       id="g156"><g
         clip-path="url(#clipPath160)"
         id="g158"><path
           id="path164"
           style="fill:#bdbdbd;fill-opacity:1;fill-rule:nonzero;stroke:none"
           d="m 102.805,440.5 486.633,0 0,-24.648 -486.633,0 0,24.648 z" /></g></g><g
       id="g166"><g
         clip-path="url(#clipPath170)"
         id="g168"><path
           id="path174"
           style="fill:#bdbdbd;fill-opacity:1;fill-rule:nonzero;stroke:none"
           d="m 102.805,467.891 525.562,0 0,-24.648 -525.562,0 0,24.648 z" /></g></g><g
       id="g176"><g
         clip-path="url(#clipPath180)"
         id="g178"><path
           id="path184"
           style="fill:#bdbdbd;fill-opacity:1;fill-rule:nonzero;stroke:none"
           d="m 102.805,495.277 545.027,0 0,-24.648 -545.027,0 0,24.648 z" /></g></g><g
       id="g186"><g
         clip-path="url(#clipPath190)"
         id="g188"><path
           id="path194"
           style="fill:#bdbdbd;fill-opacity:1;fill-rule:nonzero;stroke:none"
           d="m 102.805,522.668 629.379,0 0,-24.648 -629.379,0 0,24.648 z" /></g></g><g
       id="g196"><g
         clip-path="url(#clipPath200)"
         id="g198"><path
           id="path204"
           style="fill:#feb24c;fill-opacity:1;fill-rule:nonzero;stroke:none"
           d="m 102.805,550.055 642.355,0 0,-24.648 -642.355,0 0,24.648 z" /></g></g><g
       id="g206"><g
         clip-path="url(#clipPath210)"
         id="g208"><path
           id="path214"
           style="fill:#feb24c;fill-opacity:1;fill-rule:nonzero;stroke:none"
           d="m 102.805,577.445 642.355,0 0,-24.648 -642.355,0 0,24.648 z" /></g></g><g
       id="text218"
       style="font-variant:normal;font-weight:normal;font-size:17.00787354px;font-family:'Gill Sans MT';-inkscape-font-specification:GillSansMT;writing-mode:lr-tb;fill:#bdbdbd;fill-opacity:1;fill-rule:nonzero;stroke:none"
       transform="scale(1,-1)"><path
         id="path4574"
         style=""
         d="m 272.82023,-204.87232 4.41806,0 0,1.60279 -7.34129,0 0,-0.11627 0.69759,-0.82215 q 1.63601,-2.02633 2.59934,-3.43812 0.97165,-1.41179 1.26231,-2.13429 0.29896,-0.7225 0.29896,-1.42839 0,-0.97995 -0.55641,-1.56958 -0.55641,-0.59793 -1.47822,-0.59793 -0.69759,0 -1.37857,0.41523 -0.67267,0.40693 -1.21247,1.15434 l 0,-2.10937 q 1.35365,-1.10452 2.79035,-1.10452 1.51975,0 2.49969,1.01317 0.98825,1.01316 0.98825,2.57443 0,0.69759 -0.24913,1.49483 -0.24084,0.78894 -0.86369,1.82702 -0.62284,1.02978 -2.11768,2.81527 l -0.35709,0.42354 z" /><path
         id="path4576"
         style=""
         d="m 279.53867,-214.87109 5.14887,0 0,1.47822 -3.63743,0 0,2.93153 q 0.1744,-0.0166 0.3571,-0.0166 1.68584,0 2.77374,1.02978 1.08791,1.02147 1.08791,2.60765 0,1.63601 -1.0796,2.66578 -1.0713,1.02147 -2.78205,1.02147 -1.41179,0 -2.74053,-0.68098 l 0,-1.71075 q 1.254,0.81385 2.44987,0.81385 1.04638,0 1.75227,-0.60623 0.7142,-0.61455 0.7142,-1.50314 0,-0.92181 -0.77233,-1.53636 -0.77233,-0.62284 -1.92667,-0.62284 -0.98825,0 -1.34535,0.16609 l 0,-6.03746 z" /><path
         id="path4578"
         style="fill:#feb24c;fill-opacity:1"
         d="m 752.63673,-531.80463 -1.02147,-1.20417 q 1.28721,-0.81385 2.25055,-1.96819 0.96334,-1.16265 1.28722,-2.38343 -0.78894,0.48997 -1.85193,0.48997 -1.32874,0 -2.28378,-0.98825 -0.94672,-0.98825 -0.94672,-2.37512 0,-1.44501 1.01316,-2.44987 1.01317,-1.00486 2.47478,-1.00486 1.64432,0 2.6907,1.18757 1.04638,1.18756 1.04638,3.04779 0,2.10938 -1.31213,4.26858 -1.31213,2.1509 -3.34676,3.37998 z m 2.84018,-7.20841 q 0.0996,-0.66437 0.0996,-0.86368 0,-1.00486 -0.56471,-1.64432 -0.55641,-0.63945 -1.4367,-0.63945 -0.80555,0 -1.33705,0.5481 -0.52319,0.5398 -0.52319,1.36196 0,0.75572 0.57302,1.30383 0.57302,0.5481 1.37027,0.5481 0.93011,0 1.81871,-0.61454 z" /><path
         id="path4580"
         style="fill:#feb24c;fill-opacity:1"
         d="m 761.14063,-531.80463 -1.02147,-1.20417 q 1.28722,-0.81385 2.25056,-1.96819 0.96333,-1.16265 1.28721,-2.38343 -0.78894,0.48997 -1.85193,0.48997 -1.32874,0 -2.28377,-0.98825 -0.94673,-0.98825 -0.94673,-2.37512 0,-1.44501 1.01317,-2.44987 1.01316,-1.00486 2.47478,-1.00486 1.64431,0 2.69069,1.18757 1.04639,1.18756 1.04639,3.04779 0,2.10938 -1.31213,4.26858 -1.31213,2.1509 -3.34677,3.37998 z m 2.84018,-7.20841 q 0.0997,-0.66437 0.0997,-0.86368 0,-1.00486 -0.56471,-1.64432 -0.55641,-0.63945 -1.4367,-0.63945 -0.80555,0 -1.33705,0.5481 -0.52319,0.5398 -0.52319,1.36196 0,0.75572 0.57302,1.30383 0.57302,0.5481 1.37026,0.5481 0.93012,0 1.81871,-0.61454 z" /><path
         id="path4582"
         style="fill:#feb24c;fill-opacity:1"
         d="m 266.33194,-177.48561 4.41807,0 0,1.6028 -7.34129,0 0,-0.11627 0.69758,-0.82216 q 1.63602,-2.02632 2.59935,-3.43811 0.97164,-1.41179 1.26231,-2.13429 0.29896,-0.7225 0.29896,-1.42839 0,-0.97995 -0.55641,-1.56958 -0.55641,-0.59793 -1.47822,-0.59793 -0.69759,0 -1.37857,0.41523 -0.67267,0.40693 -1.21247,1.15434 l 0,-2.10937 q 1.35365,-1.10452 2.79035,-1.10452 1.51975,0 2.49969,1.01317 0.98825,1.01316 0.98825,2.57443 0,0.69759 -0.24914,1.49483 -0.24083,0.78894 -0.86368,1.82702 -0.62284,1.02977 -2.11768,2.81527 l -0.3571,0.42353 z" /><path
         id="path4584"
         style="fill:#feb24c;fill-opacity:1"
         d="m 277.36879,-187.63386 0.68098,0 0,6.51083 1.29552,0 0,1.41179 -1.29552,0 0,3.82843 -1.6194,0 0,-3.82843 -4.90803,0 0,-0.7142 5.84645,-7.20842 z m -0.93842,6.51083 0,-3.36337 -2.68239,3.36337 2.68239,0 z" /><path
         id="path4586"
         style=""
         d="m 433.24567,-379.20309 5.14887,0 0,1.47822 -3.63743,0 0,2.93153 q 0.1744,-0.0166 0.3571,-0.0166 1.68584,0 2.77374,1.02978 1.08791,1.02147 1.08791,2.60765 0,1.63601 -1.0796,2.66578 -1.0713,1.02147 -2.78205,1.02147 -1.41179,0 -2.74053,-0.68098 l 0,-1.71075 q 1.254,0.81385 2.44987,0.81385 1.04638,0 1.75227,-0.60623 0.7142,-0.61455 0.7142,-1.50314 0,-0.92181 -0.77233,-1.53636 -0.77233,-0.62284 -1.92667,-0.62284 -0.98825,0 -1.34535,0.16609 l 0,-6.03746 z" /><path
         id="path4588"
         style=""
         d="m 444.34895,-379.35258 q 1.59449,0 2.63257,1.67754 1.04638,1.66923 1.04638,4.24366 0,2.64087 -1.04638,4.29349 -1.03808,1.65262 -2.699,1.65262 -1.68584,0 -2.70731,-1.6194 -1.02147,-1.6194 -1.02147,-4.29349 0,-2.64087 1.05469,-4.29349 1.05468,-1.66093 2.74052,-1.66093 z m 0.0166,1.57788 -0.083,0 q -0.95504,0 -1.51975,1.17926 -0.55641,1.17095 -0.55641,3.18067 0,2.05955 0.54811,3.2305 0.5481,1.17095 1.51144,1.17095 0.96333,0 1.51974,-1.17095 0.55641,-1.17095 0.55641,-3.18067 0,-2.01803 -0.5398,-3.21389 -0.53149,-1.19587 -1.4367,-1.19587 z" /><path
         id="path4590"
         style=""
         d="m 220.84363,-77.925766 1.66093,0 0,11.601563 -1.66093,0 0,-11.601563 z" /><path
         id="path4592"
         style=""
         d="m 226.73992,-77.925766 7.50738,0 -5.25683,11.734437 -1.47822,-0.622847 4.25197,-9.525406 -5.0243,0 0,-1.586184 z" /><path
         id="path4594"
         style=""
         d="m 739.66016,-504.414 -1.02147,-1.20417 q 1.28722,-0.81386 2.25056,-1.9682 0.96334,-1.16265 1.28722,-2.38343 -0.78894,0.48998 -1.85194,0.48998 -1.32874,0 -2.28377,-0.98825 -0.94673,-0.98825 -0.94673,-2.37513 0,-1.445 1.01317,-2.44986 1.01316,-1.00486 2.47478,-1.00486 1.64431,0 2.6907,1.18756 1.04638,1.18756 1.04638,3.0478 0,2.10937 -1.31213,4.26858 -1.31213,2.15089 -3.34677,3.37998 z m 2.84019,-7.20842 q 0.0996,-0.66437 0.0996,-0.86368 0,-1.00486 -0.56471,-1.64431 -0.55641,-0.63946 -1.4367,-0.63946 -0.80555,0 -1.33705,0.54811 -0.52319,0.5398 -0.52319,1.36195 0,0.75573 0.57302,1.30383 0.57302,0.54811 1.37026,0.54811 0.93012,0 1.81872,-0.61455 z" /><path
         id="path4596"
         style=""
         d="m 745.81386,-516.14844 7.50738,0 -5.25683,11.73444 -1.47822,-0.62285 4.25197,-9.5254 -5.0243,0 0,-1.58619 z" /><path
         id="path4598"
         style=""
         d="m 343.75117,-292.18913 0.0997,0 q 1.08791,0 1.65262,-0.44845 0.57302,-0.44845 0.57302,-1.30383 0,-0.77233 -0.55641,-1.25399 -0.54811,-0.48167 -1.44501,-0.48167 -0.9052,0 -2.00971,0.56471 l 0,-1.58618 q 1.01316,-0.50658 2.20903,-0.50658 1.60279,0 2.5246,0.83876 0.93012,0.83877 0.93012,2.29208 0,0.88029 -0.3571,1.48653 -0.3571,0.59793 -1.13773,1.02977 0.68098,0.26575 0.99655,0.65607 0.31558,0.38201 0.48998,0.93011 0.17439,0.54811 0.17439,1.16265 0,1.51975 -1.01316,2.5163 -1.01317,0.98825 -2.55783,0.98825 -1.32043,0 -2.54952,-0.63945 l 0,-1.81041 q 1.31213,0.82216 2.54952,0.82216 0.83877,0 1.34535,-0.49828 0.51489,-0.49828 0.51489,-1.32044 0,-0.68928 -0.42354,-1.20417 -0.24913,-0.29066 -0.55641,-0.42353 -0.29896,-0.14118 -1.30382,-0.26575 l -0.14949,-0.0166 0,-1.52805 z" /><path
         id="path4600"
         style=""
         d="m 354.41431,-297.07225 0.1661,-0.11626 1.00486,1.2706 q -1.32874,0.85538 -2.20903,1.86854 -0.87199,1.01317 -1.34535,2.38343 0.92181,-0.47336 1.83532,-0.47336 1.37026,0 2.30868,0.97164 0.93843,0.97164 0.93843,2.38343 0,1.45331 -1.02147,2.46647 -1.02147,1.01316 -2.48308,1.01316 -1.63602,0 -2.64918,-1.14603 -1.00486,-1.15435 -1.00486,-3.01458 0,-1.39518 0.51489,-2.77375 0.52319,-1.38687 1.49483,-2.59104 0.97995,-1.21248 2.44986,-2.24225 z m -2.74052,7.12537 q -0.0664,0.39032 -0.0664,0.87198 0,0.97995 0.56471,1.6111 0.57302,0.63115 1.46162,0.63115 0.79724,0 1.31213,-0.5398 0.52319,-0.5398 0.52319,-1.36196 0,-0.83876 -0.55641,-1.35365 -0.5481,-0.52319 -1.45331,-0.52319 -0.46506,0 -0.84707,0.14118 -0.37371,0.14118 -0.93842,0.52319 z" /><path
         id="path4602"
         style=""
         d="m 272.82023,-232.26292 4.41806,0 0,1.60279 -7.34129,0 0,-0.11626 0.69759,-0.82216 q 1.63601,-2.02633 2.59934,-3.43811 0.97165,-1.41179 1.26231,-2.13429 0.29896,-0.7225 0.29896,-1.4284 0,-0.97994 -0.55641,-1.56957 -0.55641,-0.59794 -1.47822,-0.59794 -0.69759,0 -1.37857,0.41524 -0.67267,0.40692 -1.21247,1.15434 l 0,-2.10938 q 1.35365,-1.10451 2.79035,-1.10451 1.51975,0 2.49969,1.01316 0.98825,1.01317 0.98825,2.57444 0,0.69759 -0.24913,1.49483 -0.24084,0.78894 -0.86369,1.82702 -0.62284,1.02977 -2.11768,2.81527 l -0.35709,0.42353 z" /><path
         id="path4604"
         style=""
         d="m 279.53867,-242.26169 5.14887,0 0,1.47823 -3.63743,0 0,2.93153 q 0.1744,-0.0166 0.3571,-0.0166 1.68584,0 2.77374,1.02977 1.08791,1.02147 1.08791,2.60766 0,1.63601 -1.0796,2.66578 -1.0713,1.02147 -2.78205,1.02147 -1.41179,0 -2.74053,-0.68098 l 0,-1.71075 q 1.254,0.81385 2.44987,0.81385 1.04638,0 1.75227,-0.60624 0.7142,-0.61454 0.7142,-1.50313 0,-0.92182 -0.77233,-1.53636 -0.77233,-0.62285 -1.92667,-0.62285 -0.98825,0 -1.34535,0.1661 l 0,-6.03747 z" /><path
         id="path4606"
         style=""
         d="m 424.58751,-351.96586 0.68098,0 0,6.51083 1.29552,0 0,1.41178 -1.29552,0 0,3.82844 -1.6194,0 0,-3.82844 -4.90803,0 0,-0.71419 5.84645,-7.20842 z m -0.93842,6.51083 0,-3.36338 -2.6824,3.36338 2.6824,0 z" /><path
         id="path4608"
         style=""
         d="m 427.86784,-348.70214 q 0,-1.36196 1.02147,-2.30869 1.02147,-0.95503 2.49969,-0.95503 1.45331,0 2.44986,0.94673 1.00486,0.93842 1.00486,2.31699 0,1.55296 -1.445,2.56613 1.6111,0.93012 1.6111,2.74053 0,1.4367 -1.04639,2.37512 -1.04638,0.93842 -2.64087,0.93842 -1.57788,0 -2.64917,-0.95503 -1.0713,-0.96334 -1.0713,-2.37512 0,-1.76889 1.64432,-2.72392 -0.73911,-0.59793 -1.063,-1.18756 -0.31557,-0.59794 -0.31557,-1.37857 z m 5.32326,0.0498 q 0,-0.75572 -0.52319,-1.2457 -0.51488,-0.48997 -1.31213,-0.48997 -0.80555,0 -1.32043,0.48167 -0.51489,0.48167 -0.51489,1.23739 0,0.7225 0.5398,1.23739 0.54811,0.51488 1.31213,0.51488 0.75572,0 1.28722,-0.50658 0.53149,-0.51489 0.53149,-1.22908 z m 0.14118,5.32326 0,-0.16609 q 0,-0.79724 -0.57302,-1.29552 -0.56471,-0.50658 -1.46992,-0.50658 -0.88859,0 -1.4533,0.50658 -0.55641,0.50658 -0.55641,1.31213 0,0.80555 0.57301,1.31213 0.57302,0.50658 1.48653,0.50658 0.87199,0 1.4284,-0.46506 0.56471,-0.46506 0.56471,-1.20417 z" /><path
         id="path4610"
         style=""
         d="m 220.84365,-105.31638 1.66092,0 0,11.601559 -1.66092,0 0,-11.601559 z" /><path
         id="path4612"
         style=""
         d="m 226.73993,-105.31638 7.50738,0 -5.25682,11.734433 -1.47823,-0.622847 4.25197,-9.525406 -5.0243,0 0,-1.58618 z" /><path
         id="path4614"
         style="fill:#feb24c;fill-opacity:1"
         d="m 752.63673,-559.19128 -1.02147,-1.20417 q 1.28721,-0.81386 2.25055,-1.9682 0.96334,-1.16265 1.28722,-2.38343 -0.78894,0.48997 -1.85193,0.48997 -1.32874,0 -2.28378,-0.98825 -0.94672,-0.98825 -0.94672,-2.37512 0,-1.445 1.01316,-2.44986 1.01317,-1.00486 2.47478,-1.00486 1.64432,0 2.6907,1.18756 1.04638,1.18756 1.04638,3.0478 0,2.10937 -1.31213,4.26857 -1.31213,2.1509 -3.34676,3.37999 z m 2.84018,-7.20842 q 0.0996,-0.66437 0.0996,-0.86368 0,-1.00486 -0.56471,-1.64432 -0.55641,-0.63945 -1.4367,-0.63945 -0.80555,0 -1.33705,0.5481 -0.52319,0.5398 -0.52319,1.36196 0,0.75572 0.57302,1.30383 0.57302,0.5481 1.37027,0.5481 0.93011,0 1.81871,-0.61454 z" /><path
         id="path4616"
         style="fill:#feb24c;fill-opacity:1"
         d="m 761.14063,-559.19128 -1.02147,-1.20417 q 1.28722,-0.81386 2.25056,-1.9682 0.96333,-1.16265 1.28721,-2.38343 -0.78894,0.48997 -1.85193,0.48997 -1.32874,0 -2.28377,-0.98825 -0.94673,-0.98825 -0.94673,-2.37512 0,-1.445 1.01317,-2.44986 1.01316,-1.00486 2.47478,-1.00486 1.64431,0 2.69069,1.18756 1.04639,1.18756 1.04639,3.0478 0,2.10937 -1.31213,4.26857 -1.31213,2.1509 -3.34677,3.37999 z m 2.84018,-7.20842 q 0.0997,-0.66437 0.0997,-0.86368 0,-1.00486 -0.56471,-1.64432 -0.55641,-0.63945 -1.4367,-0.63945 -0.80555,0 -1.33705,0.5481 -0.52319,0.5398 -0.52319,1.36196 0,0.75572 0.57302,1.30383 0.57302,0.5481 1.37026,0.5481 0.93012,0 1.81871,-0.61454 z" /><path
         id="path4618"
         style=""
         d="m 446.22223,-406.59372 5.14887,0 0,1.47822 -3.63743,0 0,2.93154 q 0.1744,-0.0166 0.3571,-0.0166 1.68584,0 2.77375,1.02977 1.0879,1.02147 1.0879,2.60765 0,1.63602 -1.0796,2.66579 -1.07129,1.02147 -2.78205,1.02147 -1.41178,0 -2.74052,-0.68098 l 0,-1.71075 q 1.25399,0.81385 2.44986,0.81385 1.04638,0 1.75228,-0.60624 0.71419,-0.61454 0.71419,-1.50314 0,-0.92181 -0.77233,-1.53635 -0.77233,-0.62285 -1.92667,-0.62285 -0.98825,0 -1.34535,0.16609 l 0,-6.03746 z" /><path
         id="path4620"
         style=""
         d="m 456.51166,-396.59495 4.41806,0 0,1.60279 -7.34129,0 0,-0.11626 0.69759,-0.82216 q 1.63601,-2.02633 2.59935,-3.43811 0.97164,-1.41179 1.2623,-2.13429 0.29897,-0.72251 0.29897,-1.4284 0,-0.97995 -0.55641,-1.56957 -0.55641,-0.59794 -1.47822,-0.59794 -0.69759,0 -1.37857,0.41523 -0.67268,0.40693 -1.21248,1.15435 l 0,-2.10938 q 1.35366,-1.10451 2.79036,-1.10451 1.51974,0 2.49969,1.01316 0.98825,1.01317 0.98825,2.57444 0,0.69758 -0.24914,1.49483 -0.24083,0.78894 -0.86368,1.82702 -0.62285,1.02977 -2.11768,2.81526 l -0.3571,0.42354 z" /><path
         id="path4622"
         style=""
         d="m 259.84366,-150.09497 4.41806,0 0,1.6028 -7.34128,0 0,-0.11627 0.69758,-0.82215 q 1.63601,-2.02633 2.59935,-3.43812 0.97164,-1.41179 1.2623,-2.13429 0.29897,-0.7225 0.29897,-1.42839 0,-0.97995 -0.55641,-1.56958 -0.55641,-0.59793 -1.47822,-0.59793 -0.69759,0 -1.37857,0.41523 -0.67267,0.40693 -1.21248,1.15434 l 0,-2.10937 q 1.35366,-1.10452 2.79036,-1.10452 1.51975,0 2.49969,1.01317 0.98825,1.01316 0.98825,2.57443 0,0.69759 -0.24914,1.49483 -0.24083,0.78894 -0.86368,1.82702 -0.62285,1.02977 -2.11768,2.81527 l -0.3571,0.42353 z" /><path
         id="path4624"
         style=""
         d="m 267.90745,-155.24383 0.0997,0 q 1.08791,0 1.65262,-0.44845 0.57302,-0.44845 0.57302,-1.30383 0,-0.77233 -0.55641,-1.254 -0.54811,-0.48167 -1.445,-0.48167 -0.90521,0 -2.00972,0.56472 l 0,-1.58618 q 1.01316,-0.50659 2.20903,-0.50659 1.60279,0 2.5246,0.83877 0.93012,0.83877 0.93012,2.29208 0,0.88029 -0.3571,1.48652 -0.3571,0.59794 -1.13773,1.02978 0.68098,0.26575 0.99655,0.65606 0.31558,0.38202 0.48998,0.93012 0.17439,0.54811 0.17439,1.16265 0,1.51975 -1.01316,2.5163 -1.01317,0.98825 -2.55783,0.98825 -1.32043,0 -2.54952,-0.63945 l 0,-1.81041 q 1.31213,0.82216 2.54952,0.82216 0.83877,0 1.34535,-0.49828 0.51489,-0.49828 0.51489,-1.32044 0,-0.68928 -0.42354,-1.20417 -0.24913,-0.29066 -0.55641,-0.42353 -0.29896,-0.14118 -1.30382,-0.26575 l -0.14949,-0.0166 0,-1.52805 z" /><path
         id="path4626"
         style=""
         d="m 652.94569,-485.64745 q 0,-1.36196 1.02147,-2.30869 1.02147,-0.95503 2.49969,-0.95503 1.45331,0 2.44987,0.94673 1.00485,0.93842 1.00485,2.31699 0,1.55296 -1.445,2.56613 1.6111,0.93011 1.6111,2.74052 0,1.4367 -1.04639,2.37513 -1.04638,0.93842 -2.64087,0.93842 -1.57788,0 -2.64917,-0.95503 -1.0713,-0.96334 -1.0713,-2.37513 0,-1.76888 1.64432,-2.72391 -0.73911,-0.59794 -1.06299,-1.18757 -0.31558,-0.59793 -0.31558,-1.37856 z m 5.32326,0.0498 q 0,-0.75572 -0.52319,-1.24569 -0.51488,-0.48997 -1.31213,-0.48997 -0.80555,0 -1.32043,0.48167 -0.51489,0.48166 -0.51489,1.23739 0,0.7225 0.5398,1.23738 0.54811,0.51489 1.31213,0.51489 0.75572,0 1.28722,-0.50658 0.53149,-0.51489 0.53149,-1.22909 z m 0.14118,5.32327 0,-0.16609 q 0,-0.79725 -0.57302,-1.29552 -0.56471,-0.50659 -1.46991,-0.50659 -0.8886,0 -1.45331,0.50659 -0.55641,0.50658 -0.55641,1.31213 0,0.80555 0.57301,1.31213 0.57302,0.50658 1.48653,0.50658 0.87199,0 1.4284,-0.46506 0.56471,-0.46506 0.56471,-1.20417 z" /><path
         id="path4628"
         style=""
         d="m 666.67327,-488.91117 0.68098,0 0,6.51083 1.29552,0 0,1.41178 -1.29552,0 0,3.82843 -1.61941,0 0,-3.82843 -4.90803,0 0,-0.7142 5.84646,-7.20841 z m -0.93843,6.51083 0,-3.36338 -2.68239,3.36338 2.68239,0 z" /><path
         id="path4630"
         style=""
         d="m 633.48085,-458.25683 q 0,-1.36196 1.02146,-2.30868 1.02147,-0.95504 2.4997,-0.95504 1.45331,0 2.44986,0.94673 1.00486,0.93842 1.00486,2.31699 0,1.55297 -1.445,2.56613 1.61109,0.93012 1.61109,2.74053 0,1.4367 -1.04638,2.37512 -1.04638,0.93842 -2.64087,0.93842 -1.57788,0 -2.64918,-0.95503 -1.07129,-0.96334 -1.07129,-2.37512 0,-1.76889 1.64431,-2.72392 -0.73911,-0.59793 -1.06299,-1.18756 -0.31557,-0.59793 -0.31557,-1.37857 z m 5.32326,0.0498 q 0,-0.75572 -0.52319,-1.24569 -0.51489,-0.48998 -1.31213,-0.48998 -0.80555,0 -1.32044,0.48167 -0.51488,0.48167 -0.51488,1.23739 0,0.7225 0.5398,1.23739 0.5481,0.51489 1.31213,0.51489 0.75572,0 1.28721,-0.50659 0.5315,-0.51488 0.5315,-1.22908 z m 0.14118,5.32326 0,-0.16609 q 0,-0.79724 -0.57302,-1.29552 -0.56471,-0.50658 -1.46992,-0.50658 -0.88859,0 -1.45331,0.50658 -0.55641,0.50658 -0.55641,1.31213 0,0.80555 0.57302,1.31213 0.57302,0.50658 1.48653,0.50658 0.87198,0 1.42839,-0.46505 0.56472,-0.46506 0.56472,-1.20418 z" /><path
         id="path4632"
         style=""
         d="m 644.60901,-461.37106 1.66093,0 0,11.60156 -1.66093,0 0,-11.60156 z" /><path
         id="path4634"
         style=""
         d="m 233.8241,-132.70311 1.66093,0 0,11.60156 -1.66093,0 0,-11.60156 z" /><path
         id="path4636"
         style=""
         d="m 242.07059,-120.96867 -1.02146,-1.20417 q 1.28721,-0.81386 2.25055,-1.9682 0.96334,-1.16265 1.28722,-2.38343 -0.78894,0.48998 -1.85194,0.48998 -1.32874,0 -2.28377,-0.98826 -0.94672,-0.98825 -0.94672,-2.37512 0,-1.445 1.01316,-2.44986 1.01316,-1.00486 2.47478,-1.00486 1.64431,0 2.6907,1.18756 1.04638,1.18756 1.04638,3.0478 0,2.10937 -1.31213,4.26857 -1.31213,2.1509 -3.34677,3.37999 z m 2.84019,-7.20842 q 0.0997,-0.66437 0.0997,-0.86368 0,-1.00486 -0.56471,-1.64432 -0.55641,-0.63945 -1.4367,-0.63945 -0.80555,0 -1.33705,0.5481 -0.52319,0.5398 -0.52319,1.36196 0,0.75572 0.57302,1.30383 0.57302,0.5481 1.37026,0.5481 0.93012,0 1.81872,-0.61454 z" /><path
         id="path4638"
         style=""
         d="m 343.75117,-319.57585 0.0997,0 q 1.08791,0 1.65262,-0.44845 0.57302,-0.44845 0.57302,-1.30382 0,-0.77234 -0.55641,-1.254 -0.54811,-0.48167 -1.44501,-0.48167 -0.9052,0 -2.00971,0.56471 l 0,-1.58618 q 1.01316,-0.50658 2.20903,-0.50658 1.60279,0 2.5246,0.83876 0.93012,0.83877 0.93012,2.29208 0,0.88029 -0.3571,1.48653 -0.3571,0.59793 -1.13773,1.02977 0.68098,0.26575 0.99655,0.65607 0.31558,0.38201 0.48998,0.93012 0.17439,0.5481 0.17439,1.16264 0,1.51975 -1.01316,2.51631 -1.01317,0.98825 -2.55783,0.98825 -1.32043,0 -2.54952,-0.63946 l 0,-1.81041 q 1.31213,0.82216 2.54952,0.82216 0.83877,0 1.34535,-0.49828 0.51489,-0.49828 0.51489,-1.32043 0,-0.68929 -0.42354,-1.20417 -0.24913,-0.29067 -0.55641,-0.42354 -0.29896,-0.14118 -1.30382,-0.26575 l -0.14949,-0.0166 0,-1.52805 z" /><path
         id="path4640"
         style=""
         d="m 354.41431,-324.45897 0.1661,-0.11626 1.00486,1.2706 q -1.32874,0.85538 -2.20903,1.86854 -0.87199,1.01317 -1.34535,2.38343 0.92181,-0.47336 1.83532,-0.47336 1.37026,0 2.30868,0.97164 0.93843,0.97164 0.93843,2.38343 0,1.45331 -1.02147,2.46647 -1.02147,1.01317 -2.48308,1.01317 -1.63602,0 -2.64918,-1.14604 -1.00486,-1.15435 -1.00486,-3.01458 0,-1.39518 0.51489,-2.77375 0.52319,-1.38687 1.49483,-2.59104 0.97995,-1.21248 2.44986,-2.24225 z m -2.74052,7.12537 q -0.0664,0.39032 -0.0664,0.87199 0,0.97994 0.56471,1.61109 0.57302,0.63115 1.46162,0.63115 0.79724,0 1.31213,-0.5398 0.52319,-0.5398 0.52319,-1.36195 0,-0.83877 -0.55641,-1.35366 -0.5481,-0.52319 -1.45331,-0.52319 -0.46506,0 -0.84707,0.14118 -0.37371,0.14118 -0.93842,0.52319 z" /><path
         id="path4642"
         style=""
         d="m 594.56777,-433.98044 7.50738,0 -5.25683,11.73444 -1.47822,-0.62285 4.25197,-9.5254 -5.0243,0 0,-1.58619 z" /><path
         id="path4644"
         style=""
         d="m 603.96027,-433.98044 5.14887,0 0,1.47823 -3.63743,0 0,2.93153 q 0.1744,-0.0166 0.3571,-0.0166 1.68584,0 2.77374,1.02977 1.08791,1.02147 1.08791,2.60766 0,1.63601 -1.0796,2.66578 -1.0713,1.02147 -2.78205,1.02147 -1.41179,0 -2.74053,-0.68098 l 0,-1.71075 q 1.254,0.81385 2.44987,0.81385 1.04638,0 1.75227,-0.60624 0.7142,-0.61454 0.7142,-1.50313 0,-0.92182 -0.77233,-1.53636 -0.77233,-0.62285 -1.92667,-0.62285 -0.98825,0 -1.34535,0.1661 l 0,-6.03747 z" /><path
         id="path4646"
         style=""
         d="m 207.86709,-50.539047 1.66092,0 0,11.601562 -1.66092,0 0,-11.601562 z" /><path
         id="path4648"
         style=""
         d="m 214.65195,-50.539047 5.14887,0 0,1.478223 -3.63743,0 0,2.931533 q 0.1744,-0.01661 0.3571,-0.01661 1.68584,0 2.77375,1.029774 1.0879,1.021469 1.0879,2.607652 0,1.636011 -1.0796,2.665785 -1.0713,1.021469 -2.78205,1.021469 -1.41179,0 -2.74053,-0.680979 l 0,-1.710753 q 1.254,0.813853 2.44987,0.813853 1.04638,0 1.75227,-0.606238 0.7142,-0.614542 0.7142,-1.503137 0,-0.921813 -0.77233,-1.536356 -0.77233,-0.622847 -1.92667,-0.622847 -0.98825,0 -1.34535,0.166093 l 0,-6.037463 z" /><path
         id="path4650"
         style=""
         d="m 317.79805,-264.79851 0.0996,0 q 1.08791,0 1.65263,-0.44845 0.57301,-0.44844 0.57301,-1.30382 0,-0.77233 -0.55641,-1.254 -0.5481,-0.48167 -1.445,-0.48167 -0.9052,0 -2.00972,0.56472 l 0,-1.58619 q 1.01316,-0.50658 2.20903,-0.50658 1.60279,0 2.52461,0.83877 0.93012,0.83877 0.93012,2.29207 0,0.8803 -0.3571,1.48653 -0.3571,0.59794 -1.13774,1.02978 0.68098,0.26574 0.99656,0.65606 0.31557,0.38201 0.48997,0.93012 0.1744,0.54811 0.1744,1.16265 0,1.51974 -1.01317,2.5163 -1.01316,0.98825 -2.55782,0.98825 -1.32044,0 -2.54952,-0.63946 l 0,-1.81041 q 1.31213,0.82216 2.54952,0.82216 0.83877,0 1.34535,-0.49827 0.51488,-0.49828 0.51488,-1.32044 0,-0.68928 -0.42353,-1.20417 -0.24914,-0.29066 -0.55641,-0.42354 -0.29897,-0.14118 -1.30383,-0.26574 l -0.14948,-0.0166 0,-1.52806 z" /><path
         id="path4652"
         style=""
         d="m 326.74213,-259.64964 4.41806,0 0,1.6028 -7.34129,0 0,-0.11627 0.69759,-0.82216 q 1.63601,-2.02633 2.59935,-3.43811 0.97164,-1.41179 1.2623,-2.13429 0.29897,-0.7225 0.29897,-1.4284 0,-0.97994 -0.55641,-1.56957 -0.55641,-0.59793 -1.47822,-0.59793 -0.69759,0 -1.37857,0.41523 -0.67268,0.40692 -1.21248,1.15434 l 0,-2.10937 q 1.35366,-1.10452 2.79036,-1.10452 1.51974,0 2.49969,1.01316 0.98825,1.01317 0.98825,2.57444 0,0.69759 -0.24914,1.49483 -0.24083,0.78894 -0.86368,1.82702 -0.62285,1.02977 -2.11768,2.81527 l -0.3571,0.42353 z" /></g><text
       y="-40.296875"
       x="39.796875"
       transform="scale(1,-1)"
       style="font-variant:normal;font-weight:normal;font-size:12.80000019px;font-family:'Gill Sans MT';-inkscape-font-specification:GillSansMT;writing-mode:lr-tb;fill:#000000;fill-opacity:1;fill-rule:nonzero;stroke:none"
       id="text260"><tspan
         x="39.796875 45.748875 50.075275 57.243275 62.926476 69.147278 75.649673 82.817673 85.659271"
         y="-40.296875"
         id="tspan262">Stockholm</tspan><tspan
         x="49.56641 59.03841 66.206413 72.708817 77.700806 82.027206 89.195206"
         y="-67.683594"
         id="tspan264">Houston</tspan><tspan
         x="38.445324 48.582924 54.816521 57.658123 64.160522 71.328522 77.818123 82.963722 89.453323"
         y="-95.074219"
         id="tspan266">Melbourne</tspan><tspan
         x="39.980476 50.11808 56.351677 65.695679 69.29248 77.15168 84.306877 89.452477"
         y="-122.46093"
         id="tspan268">New York</tspan><tspan
         x="47.792984 57.930584 65.098587 71.600983 75.927383 81.060181 87.293785 92.82338"
         y="-149.85156"
         id="tspan270">Montreal</tspan><tspan
         x="64.824226 72.133026 78.353828 83.486633 86.341034 89.182632"
         y="-177.24219"
         id="tspan272">Berlin</tspan><tspan
         x="34.121098 42.773899 52.783501 57.775497 62.1147 68.335495 73.4683 80.085899 85.628296"
         y="-204.62891"
         id="tspan274">Amsterdam</tspan><tspan
         x="32.535168 38.909565 46.064766 51.056767 54.666367 63.319168 69.821564 75.363968 81.584763 84.426361 90.659966"
         y="-232.01953"
         id="tspan276">Los Angeles</tspan><tspan
         x="50.371109 58.217506 65.385513 70.518311 77.68631 84.188705 88.515106"
         y="-259.40625"
         id="tspan278">Toronto</tspan><tspan
         x="55.375011 61.749413 68.904617 75.407013 82.024612 89.192612"
         y="-286.79688"
         id="tspan280">London</tspan><tspan
         x="70.542984 77.160583 82.702988 87.835785 90.677383"
         y="-314.18359"
         id="tspan282">Paris</tspan><tspan
         x="58.769547 68.90715 74.449547 81.067146 86.199951 89.04155"
         y="-341.57422"
         id="tspan284">Madrid</tspan><tspan
         x="25.488293 32.797092 39.299492 45.520294 52.022694 59.190693 64.182693 67.779495 76.432297 79.286697 84.419495 90.640289"
         y="-368.96094"
         id="tspan286">Buenos Aires</tspan><tspan
         x="67.820328 77.957924 80.812325 83.653923 89.19632"
         y="-396.35156"
         id="tspan288">Milan</tspan><tspan
         x="44.062515 50.014511 55.556915 62.712112 66.321716 72.939316 78.468918 85.636917 88.478516"
         y="-423.73828"
         id="tspan290">Sao Paolo</tspan><tspan
         x="38.203133 48.340736 54.574333 63.918335 67.515137 77.268738 83.489532 86.343933 92.846329"
         y="-451.12891"
         id="tspan292">New Delhi</tspan><tspan
         x="51.175793 61.313393 68.481392 73.473389 79.156593 86.311798"
         y="-478.51953"
         id="tspan294">Moscow</tspan><tspan
         x="25.324234 28.575436 35.743435 42.233036 47.775436 54.277836 60.780235 67.001038 71.993034 78.495438 84.997833 90.13063"
         y="-505.90625"
         id="tspan296">Johannesburg</tspan><tspan
         x="61.574234 68.883034 75.103836 77.958237 80.799835 83.654236 90.143829"
         y="-533.29688"
         id="tspan298">Beijing</tspan><tspan
         x="31.437515 41.575115 47.808716 54.298317 57.152718 62.835915 69.991119 73.600716 82.803909 85.645515 89.971916"
         y="-560.68359"
         id="tspan300">Mexico City</tspan></text>
<text
       y="-10.800781"
       x="406.82422"
       transform="scale(1,-1)"
       style="font-variant:normal;font-weight:normal;font-size:16px;font-family:'Gill Sans MT';-inkscape-font-specification:GillSansMT;writing-mode:lr-tb;fill:#000000;fill-opacity:1;fill-rule:nonzero;stroke:none"
       id="text302"><tspan
         x="406.82422 414.96823 421.78421 425.28821 433.28821 437.72021 441.72021 449.72021 457.86423 465.52823"
         y="-10.800781"
         id="tspan304">Pain Index</tspan></text>
<text
       y="-581.04688"
       x="317.51953"
       transform="scale(1,-1)"
       style="font-variant:normal;font-weight:normal;font-size:19.20000076px;font-family:'Gill Sans MT';-inkscape-font-specification:GillSansMT;writing-mode:lr-tb;fill:#000000;fill-opacity:1;fill-rule:nonzero;stroke:none"
       id="text306"><tspan
         x="317.51953 329.00113 338.48593 347.60593 352.86673 372.64273 383.10672 390.61392 394.81873 404.43793 408.02832 415.28592 420.54672 440.34192 450.80594 458.31311 465.60913 471.92593 477.18674 490.64594 501.10992 515.7403 530.37073 539.87469 546.19153 555.2923"
         y="-581.04688"
         id="tspan308">The World's Worst Commutes</tspan></text>
</g></svg>