<?xml version="1.0" encoding="UTF-8" standalone="no"?>
<!-- Created with Inkscape (http://www.inkscape.org/) -->

<svg
   xmlns:dc="http://purl.org/dc/elements/1.1/"
   xmlns:cc="http://creativecommons.org/ns#"
   xmlns:rdf="http://www.w3.org/1999/02/22-rdf-syntax-ns#"
   xmlns:svg="http://www.w3.org/2000/svg"
   xmlns="http://www.w3.org/2000/svg"
   xmlns:sodipodi="http://sodipodi.sourceforge.net/DTD/sodipodi-0.dtd"
   xmlns:inkscape="http://www.inkscape.org/namespaces/inkscape"
   id="svg4773"
   version="1.1"
   inkscape:version="0.91 r13725"
   xml:space="preserve"
   width="990"
   height="765"
   viewBox="0 0 990 765"
   sodipodi:docname="ratherWorkRemake.svg"><metadata
     id="metadata4779"><rdf:RDF><cc:Work
         rdf:about=""><dc:format>image/svg+xml</dc:format><dc:type
           rdf:resource="http://purl.org/dc/dcmitype/StillImage" /><dc:title></dc:title></cc:Work></rdf:RDF></metadata><defs
     id="defs4777"><clipPath
       clipPathUnits="userSpaceOnUse"
       id="clipPath4791"><path
         d="m 102.805,58 34.195,0 0,-26 -34.195,0 0,26 z"
         id="path4793"
         inkscape:connector-curvature="0" /></clipPath><clipPath
       clipPathUnits="userSpaceOnUse"
       id="clipPath4801"><path
         d="m 102.805,85 54.195,0 0,-26 -54.195,0 0,26 z"
         id="path4803"
         inkscape:connector-curvature="0" /></clipPath><clipPath
       clipPathUnits="userSpaceOnUse"
       id="clipPath4811"><path
         d="m 102.805,112 61.195,0 0,-25 -61.195,0 0,25 z"
         id="path4813"
         inkscape:connector-curvature="0" /></clipPath><clipPath
       clipPathUnits="userSpaceOnUse"
       id="clipPath4821"><path
         d="m 102.805,140 61.195,0 0,-26 -61.195,0 0,26 z"
         id="path4823"
         inkscape:connector-curvature="0" /></clipPath><clipPath
       clipPathUnits="userSpaceOnUse"
       id="clipPath4831"><path
         d="m 102.805,167 68.195,0 0,-26 -68.195,0 0,26 z"
         id="path4833"
         inkscape:connector-curvature="0" /></clipPath><clipPath
       clipPathUnits="userSpaceOnUse"
       id="clipPath4841"><path
         d="m 102.805,194 68.195,0 0,-25 -68.195,0 0,25 z"
         id="path4843"
         inkscape:connector-curvature="0" /></clipPath><clipPath
       clipPathUnits="userSpaceOnUse"
       id="clipPath4851"><path
         d="m 102.805,222 81.195,0 0,-26 -81.195,0 0,26 z"
         id="path4853"
         inkscape:connector-curvature="0" /></clipPath><clipPath
       clipPathUnits="userSpaceOnUse"
       id="clipPath4861"><path
         d="m 102.805,249 88.195,0 0,-25 -88.195,0 0,25 z"
         id="path4863"
         inkscape:connector-curvature="0" /></clipPath><clipPath
       clipPathUnits="userSpaceOnUse"
       id="clipPath4871"><path
         d="m 102.805,277 95.195,0 0,-26 -95.195,0 0,26 z"
         id="path4873"
         inkscape:connector-curvature="0" /></clipPath><clipPath
       clipPathUnits="userSpaceOnUse"
       id="clipPath4881"><path
         d="m 102.805,304 95.195,0 0,-26 -95.195,0 0,26 z"
         id="path4883"
         inkscape:connector-curvature="0" /></clipPath><clipPath
       clipPathUnits="userSpaceOnUse"
       id="clipPath4891"><path
         d="m 102.805,331 102.195,0 0,-25 -102.195,0 0,25 z"
         id="path4893"
         inkscape:connector-curvature="0" /></clipPath><clipPath
       clipPathUnits="userSpaceOnUse"
       id="clipPath4901"><path
         d="m 102.805,359 102.195,0 0,-26 -102.195,0 0,26 z"
         id="path4903"
         inkscape:connector-curvature="0" /></clipPath><clipPath
       clipPathUnits="userSpaceOnUse"
       id="clipPath4911"><path
         d="m 102.805,386 108.195,0 0,-25 -108.195,0 0,25 z"
         id="path4913"
         inkscape:connector-curvature="0" /></clipPath><clipPath
       clipPathUnits="userSpaceOnUse"
       id="clipPath4921"><path
         d="m 102.805,414 115.195,0 0,-26 -115.195,0 0,26 z"
         id="path4923"
         inkscape:connector-curvature="0" /></clipPath><clipPath
       clipPathUnits="userSpaceOnUse"
       id="clipPath4931"><path
         d="m 102.805,441 115.195,0 0,-26 -115.195,0 0,26 z"
         id="path4933"
         inkscape:connector-curvature="0" /></clipPath><clipPath
       clipPathUnits="userSpaceOnUse"
       id="clipPath4941"><path
         d="m 102.805,468 162.195,0 0,-25 -162.195,0 0,25 z"
         id="path4943"
         inkscape:connector-curvature="0" /></clipPath><clipPath
       clipPathUnits="userSpaceOnUse"
       id="clipPath4951"><path
         d="m 102.805,496 169.195,0 0,-26 -169.195,0 0,26 z"
         id="path4953"
         inkscape:connector-curvature="0" /></clipPath><clipPath
       clipPathUnits="userSpaceOnUse"
       id="clipPath4961"><path
         d="m 102.805,523 169.195,0 0,-25 -169.195,0 0,25 z"
         id="path4963"
         inkscape:connector-curvature="0" /></clipPath><clipPath
       clipPathUnits="userSpaceOnUse"
       id="clipPath4971"><path
         d="m 102.805,551 169.195,0 0,-26 -169.195,0 0,26 z"
         id="path4973"
         inkscape:connector-curvature="0" /></clipPath><clipPath
       clipPathUnits="userSpaceOnUse"
       id="clipPath4981"><path
         d="m 102.805,577.445 270.195,0 0,-25.445 -270.195,0 0,25.445 z"
         id="path4983"
         inkscape:connector-curvature="0" /></clipPath></defs><sodipodi:namedview
     pagecolor="#ffffff"
     bordercolor="#000000"
     borderopacity="0"
     objecttolerance="10"
     gridtolerance="10"
     guidetolerance="10"
     inkscape:pageopacity="1"
     inkscape:pageshadow="2"
     inkscape:window-width="1440"
     inkscape:window-height="855"
     id="namedview4775"
     showgrid="false"
     inkscape:zoom="0.96431382"
     inkscape:cx="26.810832"
     inkscape:cy="495.55991"
     inkscape:window-x="0"
     inkscape:window-y="0"
     inkscape:window-maximized="0"
     inkscape:current-layer="g4781"
     inkscape:showpageshadow="true" /><g
     id="g4781"
     inkscape:groupmode="layer"
     inkscape:label="ratherWorkRemake"
     transform="matrix(1.25,0,0,-1.25,0,765)"><path
       inkscape:connector-curvature="0"
       id="path4785"
       style="fill:#ffffff;fill-opacity:1;fill-rule:nonzero;stroke:none"
       d="M 0,0 792,0 792,612 0,612 0,0 Z" /><g
       id="g4787"><g
         id="g4789"
         clip-path="url(#clipPath4791)"><path
           d="m 102.805,57.059 33.738,0 0,-24.648 -33.738,0 0,24.648 z"
           style="fill:#bdbdbd;fill-opacity:1;fill-rule:nonzero;stroke:none"
           id="path4795"
           inkscape:connector-curvature="0" /></g></g><g
       id="g4797"><g
         id="g4799"
         clip-path="url(#clipPath4801)"><path
           d="m 102.805,84.445 53.984,0 0,-24.648 -53.984,0 0,24.648 z"
           style="fill:#bdbdbd;fill-opacity:1;fill-rule:nonzero;stroke:none"
           id="path4805"
           inkscape:connector-curvature="0" /></g></g><g
       id="g4807"><g
         id="g4809"
         clip-path="url(#clipPath4811)"><path
           d="m 102.805,111.836 60.73,0 0,-24.648 -60.73,0 0,24.648 z"
           style="fill:#bdbdbd;fill-opacity:1;fill-rule:nonzero;stroke:none"
           id="path4815"
           inkscape:connector-curvature="0" /></g></g><g
       id="g4817"><g
         id="g4819"
         clip-path="url(#clipPath4821)"><path
           d="m 102.805,139.223 60.73,0 0,-24.648 -60.73,0 0,24.648 z"
           style="fill:#bdbdbd;fill-opacity:1;fill-rule:nonzero;stroke:none"
           id="path4825"
           inkscape:connector-curvature="0" /></g></g><g
       id="g4827"><g
         id="g4829"
         clip-path="url(#clipPath4831)"><path
           d="m 102.805,166.613 67.48,0 0,-24.648 -67.48,0 0,24.648 z"
           style="fill:#bdbdbd;fill-opacity:1;fill-rule:nonzero;stroke:none"
           id="path4835"
           inkscape:connector-curvature="0" /></g></g><g
       id="g4837"><g
         id="g4839"
         clip-path="url(#clipPath4841)"><path
           d="m 102.805,194 67.48,0 0,-24.648 -67.48,0 0,24.648 z"
           style="fill:#bdbdbd;fill-opacity:1;fill-rule:nonzero;stroke:none"
           id="path4845"
           inkscape:connector-curvature="0" /></g></g><g
       id="g4847"><g
         id="g4849"
         clip-path="url(#clipPath4851)"><path
           d="m 102.805,221.391 80.977,0 0,-24.648 -80.977,0 0,24.648 z"
           style="fill:#bdbdbd;fill-opacity:1;fill-rule:nonzero;stroke:none"
           id="path4855"
           inkscape:connector-curvature="0" /></g></g><g
       id="g4857"><g
         id="g4859"
         clip-path="url(#clipPath4861)"><path
           d="m 102.805,248.777 87.723,0 0,-24.648 -87.723,0 0,24.648 z"
           style="fill:#bdbdbd;fill-opacity:1;fill-rule:nonzero;stroke:none"
           id="path4865"
           inkscape:connector-curvature="0" /></g></g><g
       id="g4867"><g
         id="g4869"
         clip-path="url(#clipPath4871)"><path
           d="m 102.805,276.168 94.473,0 0,-24.648 -94.473,0 0,24.648 z"
           style="fill:#bdbdbd;fill-opacity:1;fill-rule:nonzero;stroke:none"
           id="path4875"
           inkscape:connector-curvature="0" /></g></g><g
       id="g4877"><g
         id="g4879"
         clip-path="url(#clipPath4881)"><path
           d="m 102.805,303.559 94.473,0 0,-24.648 -94.473,0 0,24.648 z"
           style="fill:#bdbdbd;fill-opacity:1;fill-rule:nonzero;stroke:none"
           id="path4885"
           inkscape:connector-curvature="0" /></g></g><g
       id="g4887"><g
         id="g4889"
         clip-path="url(#clipPath4891)"><path
           d="m 102.805,330.945 101.219,0 0,-24.648 -101.219,0 0,24.648 z"
           style="fill:#bdbdbd;fill-opacity:1;fill-rule:nonzero;stroke:none"
           id="path4895"
           inkscape:connector-curvature="0" /></g></g><g
       id="g4897"><g
         id="g4899"
         clip-path="url(#clipPath4901)"><path
           d="m 102.805,358.336 101.219,0 0,-24.648 -101.219,0 0,24.648 z"
           style="fill:#bdbdbd;fill-opacity:1;fill-rule:nonzero;stroke:none"
           id="path4905"
           inkscape:connector-curvature="0" /></g></g><g
       id="g4907"><g
         id="g4909"
         clip-path="url(#clipPath4911)"><path
           d="m 102.805,385.723 107.969,0 0,-24.648 -107.969,0 0,24.648 z"
           style="fill:#bdbdbd;fill-opacity:1;fill-rule:nonzero;stroke:none"
           id="path4915"
           inkscape:connector-curvature="0" /></g></g><g
       id="g4917"><g
         id="g4919"
         clip-path="url(#clipPath4921)"><path
           d="m 102.805,413.113 114.715,0 0,-24.648 -114.715,0 0,24.648 z"
           style="fill:#bdbdbd;fill-opacity:1;fill-rule:nonzero;stroke:none"
           id="path4925"
           inkscape:connector-curvature="0" /></g></g><g
       id="g4927"><g
         id="g4929"
         clip-path="url(#clipPath4931)"><path
           d="m 102.805,440.5 114.715,0 0,-24.648 -114.715,0 0,24.648 z"
           style="fill:#bdbdbd;fill-opacity:1;fill-rule:nonzero;stroke:none"
           id="path4935"
           inkscape:connector-curvature="0" /></g></g><g
       id="g4937"><g
         id="g4939"
         clip-path="url(#clipPath4941)"><path
           d="m 102.805,467.891 161.949,0 0,-24.648 -161.949,0 0,24.648 z"
           style="fill:#bdbdbd;fill-opacity:1;fill-rule:nonzero;stroke:none"
           id="path4945"
           inkscape:connector-curvature="0" /></g></g><g
       id="g4947"><g
         id="g4949"
         clip-path="url(#clipPath4951)"><path
           d="m 102.805,495.277 168.699,0 0,-24.648 -168.699,0 0,24.648 z"
           style="fill:#feb24c;fill-opacity:1;fill-rule:nonzero;stroke:none"
           id="path4955"
           inkscape:connector-curvature="0" /></g></g><g
       id="g4957"><g
         id="g4959"
         clip-path="url(#clipPath4961)"><path
           d="m 102.805,522.668 168.699,0 0,-24.648 -168.699,0 0,24.648 z"
           style="fill:#feb24c;fill-opacity:1;fill-rule:nonzero;stroke:none"
           id="path4965"
           inkscape:connector-curvature="0" /></g></g><g
       id="g4967"><g
         id="g4969"
         clip-path="url(#clipPath4971)"><path
           d="m 102.805,550.055 168.699,0 0,-24.648 -168.699,0 0,24.648 z"
           style="fill:#feb24c;fill-opacity:1;fill-rule:nonzero;stroke:none"
           id="path4975"
           inkscape:connector-curvature="0" /></g></g><g
       id="g4977"><g
         id="g4979"
         clip-path="url(#clipPath4981)"><path
           d="m 102.805,577.445 269.918,0 0,-24.648 -269.918,0 0,24.648 z"
           style="fill:#bdbdbd;fill-opacity:1;fill-rule:nonzero;stroke:none"
           id="path4985"
           inkscape:connector-curvature="0" /></g></g><g
       transform="scale(1,-1)"
       style="font-variant:normal;font-weight:normal;font-size:17.00787354px;font-family:'Gill Sans MT';-inkscape-font-specification:GillSansMT;writing-mode:lr-tb;fill:#bdbdbd;fill-opacity:1;fill-rule:nonzero;stroke:none"
       id="text4989"><path
         d="m 164.55296,-74.811546 q 0,-1.361959 1.02147,-2.308686 1.02147,-0.955032 2.49969,-0.955032 1.45331,0 2.44986,0.946727 1.00486,0.938423 1.00486,2.316991 0,1.552965 -1.445,2.566129 1.6111,0.930118 1.6111,2.740527 0,1.4367 -1.04639,2.375123 -1.04638,0.938422 -2.64087,0.938422 -1.57788,0 -2.64917,-0.955032 -1.0713,-0.963336 -1.0713,-2.375123 0,-1.768885 1.64432,-2.723917 -0.73912,-0.597933 -1.063,-1.187561 -0.31557,-0.597933 -0.31557,-1.378568 z m 5.32326,0.04983 q 0,-0.75572 -0.52319,-1.245693 -0.51488,-0.489973 -1.31213,-0.489973 -0.80555,0 -1.32043,0.481668 -0.51489,0.481668 -0.51489,1.237389 0,0.722503 0.5398,1.237389 0.54811,0.514887 1.31213,0.514887 0.75572,0 1.28722,-0.506582 0.53149,-0.514887 0.53149,-1.229085 z m 0.14118,5.323266 0,-0.166093 q 0,-0.797244 -0.57302,-1.295522 -0.56471,-0.506582 -1.46992,-0.506582 -0.88859,0 -1.45331,0.506582 -0.55641,0.506583 -0.55641,1.312131 0,0.805549 0.57302,1.312131 0.57302,0.506582 1.48653,0.506582 0.87199,0 1.4284,-0.465059 0.56471,-0.465059 0.56471,-1.20417 z"
         style="fill:#bdbdbd;fill-opacity:1"
         id="path5148" /><path
         d="m 277.7085,-478.76295 4.41806,0 0,1.60279 -7.34129,0 0,-0.11626 0.69759,-0.82216 q 1.63601,-2.02633 2.59935,-3.43811 0.97164,-1.41179 1.2623,-2.13429 0.29897,-0.72251 0.29897,-1.4284 0,-0.97994 -0.55641,-1.56957 -0.55641,-0.59794 -1.47822,-0.59794 -0.69759,0 -1.37857,0.41524 -0.67268,0.40692 -1.21248,1.15434 l 0,-2.10938 q 1.35366,-1.10451 2.79036,-1.10451 1.51974,0 2.49969,1.01316 0.98825,1.01317 0.98825,2.57444 0,0.69759 -0.24914,1.49483 -0.24083,0.78894 -0.86368,1.82702 -0.62285,1.02977 -2.11768,2.81527 l -0.3571,0.42353 z"
         style="fill:#feb24c;fill-opacity:1"
         id="path5150" /><path
         d="m 284.42694,-488.76172 5.14887,0 0,1.47822 -3.63742,0 0,2.93154 q 0.17439,-0.0166 0.35709,-0.0166 1.68584,0 2.77375,1.02977 1.08791,1.02147 1.08791,2.60765 0,1.63602 -1.07961,2.66579 -1.07129,1.02147 -2.78205,1.02147 -1.41178,0 -2.74052,-0.68098 l 0,-1.71075 q 1.254,0.81385 2.44986,0.81385 1.04639,0 1.75228,-0.60624 0.7142,-0.61454 0.7142,-1.50314 0,-0.92181 -0.77233,-1.53635 -0.77233,-0.62285 -1.92668,-0.62285 -0.98825,0 -1.34535,0.16609 l 0,-6.03746 z"
         style="fill:#feb24c;fill-opacity:1"
         id="path5152" /><path
         d="m 277.7085,-506.14967 4.41806,0 0,1.6028 -7.34129,0 0,-0.11627 0.69759,-0.82216 q 1.63601,-2.02633 2.59935,-3.43811 0.97164,-1.41179 1.2623,-2.13429 0.29897,-0.7225 0.29897,-1.4284 0,-0.97994 -0.55641,-1.56957 -0.55641,-0.59793 -1.47822,-0.59793 -0.69759,0 -1.37857,0.41523 -0.67268,0.40692 -1.21248,1.15434 l 0,-2.10938 q 1.35366,-1.10451 2.79036,-1.10451 1.51974,0 2.49969,1.01316 0.98825,1.01317 0.98825,2.57444 0,0.69759 -0.24914,1.49483 -0.24083,0.78894 -0.86368,1.82702 -0.62285,1.02977 -2.11768,2.81527 l -0.3571,0.42353 z"
         style="fill:#feb24c;fill-opacity:1"
         id="path5154" /><path
         d="m 284.42694,-516.14844 5.14887,0 0,1.47823 -3.63742,0 0,2.93153 q 0.17439,-0.0166 0.35709,-0.0166 1.68584,0 2.77375,1.02977 1.08791,1.02147 1.08791,2.60766 0,1.63601 -1.07961,2.66578 -1.07129,1.02147 -2.78205,1.02147 -1.41178,0 -2.74052,-0.68098 l 0,-1.71075 q 1.254,0.81385 2.44986,0.81385 1.04639,0 1.75228,-0.60624 0.7142,-0.61454 0.7142,-1.50313 0,-0.92182 -0.77233,-1.53636 -0.77233,-0.62285 -1.92668,-0.62285 -0.98825,0 -1.34535,0.1661 l 0,-6.03747 z"
         style="fill:#feb24c;fill-opacity:1"
         id="path5156" /><path
         d="m 203.4155,-269.64847 1.66093,0 0,11.60156 -1.66093,0 0,-11.60156 z"
         style="fill:#bdbdbd;fill-opacity:1"
         id="path5158" /><path
         d="m 214.51879,-269.79795 0.68098,0 0,6.51083 1.29552,0 0,1.41178 -1.29552,0 0,3.82843 -1.61941,0 0,-3.82843 -4.90803,0 0,-0.7142 5.84646,-7.20841 z m -0.93843,6.51083 0,-3.36338 -2.68239,3.36338 2.68239,0 z"
         style="fill:#bdbdbd;fill-opacity:1"
         id="path5160" /><path
         d="m 173.66589,-93.581985 -1.02147,-1.204171 q 1.28721,-0.813853 2.25055,-1.968196 0.96334,-1.162648 1.28722,-2.383428 -0.78894,0.489973 -1.85193,0.489973 -1.32874,0 -2.28378,-0.98825 -0.94672,-0.988253 -0.94672,-2.375123 0,-1.44501 1.01316,-2.44986 1.01317,-1.00486 2.47478,-1.00486 1.64432,0 2.6907,1.18756 1.04638,1.18756 1.04638,3.04779 0,2.10938 -1.31213,4.268582 -1.31213,2.150898 -3.34676,3.379983 z m 2.84018,-7.208415 q 0.0996,-0.66437 0.0996,-0.86368 0,-1.00486 -0.56471,-1.64432 -0.55641,-0.63945 -1.4367,-0.63945 -0.80555,0 -1.33705,0.5481 -0.52319,0.5398 -0.52319,1.36196 0,0.75572 0.57302,1.30383 0.57302,0.5481 1.37026,0.5481 0.93012,0 1.81872,-0.61454 z"
         style="fill:#bdbdbd;fill-opacity:1"
         id="path5162" /><path
         d="m 270.9585,-451.37235 4.41806,0 0,1.60279 -7.34129,0 0,-0.11627 0.69759,-0.82215 q 1.63601,-2.02633 2.59935,-3.43812 0.97164,-1.41179 1.2623,-2.13429 0.29897,-0.7225 0.29897,-1.42839 0,-0.97995 -0.55641,-1.56958 -0.55641,-0.59793 -1.47822,-0.59793 -0.69759,0 -1.37857,0.41523 -0.67268,0.40693 -1.21248,1.15434 l 0,-2.10937 q 1.35366,-1.10452 2.79036,-1.10452 1.51974,0 2.49969,1.01317 0.98825,1.01316 0.98825,2.57443 0,0.69759 -0.24914,1.49483 -0.24083,0.78894 -0.86368,1.82702 -0.62285,1.02978 -2.11768,2.81527 l -0.3571,0.42354 z"
         style="fill:#bdbdbd;fill-opacity:1"
         id="path5164" /><path
         d="m 281.99535,-461.52061 0.68098,0 0,6.51083 1.29552,0 0,1.41179 -1.29552,0 0,3.82843 -1.6194,0 0,-3.82843 -4.90804,0 0,-0.7142 5.84646,-7.20842 z m -0.93842,6.51083 0,-3.36337 -2.6824,3.36337 2.6824,0 z"
         style="fill:#bdbdbd;fill-opacity:1"
         id="path5166" /><path
         d="m 223.6577,-406.59375 1.66093,0 0,11.60156 -1.66093,0 0,-11.60156 z"
         style="fill:#bdbdbd;fill-opacity:1"
         id="path5168" /><path
         d="m 229.55397,-406.59375 7.50738,0 -5.25682,11.73444 -1.47823,-0.62285 4.25197,-9.52541 -5.0243,0 0,-1.58618 z"
         style="fill:#bdbdbd;fill-opacity:1"
         id="path5170" /><path
         d="m 196.6655,-242.26173 1.66093,0 0,11.60156 -1.66093,0 0,-11.60156 z"
         style="fill:#bdbdbd;fill-opacity:1"
         id="path5172" /><path
         d="m 204.79573,-237.41183 0.0997,0 q 1.0879,0 1.65262,-0.44845 0.57302,-0.44845 0.57302,-1.30383 0,-0.77233 -0.55641,-1.254 -0.54811,-0.48167 -1.44501,-0.48167 -0.9052,0 -2.00972,0.56472 l 0,-1.58618 q 1.01317,-0.50659 2.20903,-0.50659 1.60279,0 2.52461,0.83877 0.93012,0.83877 0.93012,2.29208 0,0.88029 -0.3571,1.48653 -0.3571,0.59793 -1.13774,1.02977 0.68098,0.26575 0.99656,0.65606 0.31557,0.38202 0.48997,0.93012 0.1744,0.54811 0.1744,1.16265 0,1.51975 -1.01317,2.5163 -1.01316,0.98825 -2.55782,0.98825 -1.32044,0 -2.54952,-0.63945 l 0,-1.81041 q 1.31213,0.82216 2.54952,0.82216 0.83877,0 1.34535,-0.49828 0.51489,-0.49828 0.51489,-1.32044 0,-0.68928 -0.42354,-1.20417 -0.24914,-0.29066 -0.55641,-0.42353 -0.29897,-0.14118 -1.30383,-0.26575 l -0.14948,-0.0166 0,-1.52805 z"
         style="fill:#bdbdbd;fill-opacity:1"
         id="path5174" /><path
         d="m 145.21207,-50.539077 5.14887,0 0,1.478223 -3.63743,0 0,2.931533 q 0.1744,-0.01661 0.3571,-0.01661 1.68584,0 2.77374,1.029773 1.08791,1.021469 1.08791,2.607653 0,1.636011 -1.0796,2.665785 -1.0713,1.021469 -2.78205,1.021469 -1.41179,0 -2.74053,-0.68098 l 0,-1.710753 q 1.254,0.813854 2.44987,0.813854 1.04638,0 1.75227,-0.606238 0.7142,-0.614542 0.7142,-1.503137 0,-0.921814 -0.77233,-1.536356 -0.77233,-0.622847 -1.92667,-0.622847 -0.98825,0 -1.34535,0.166092 l 0,-6.037462 z"
         style="fill:#bdbdbd;fill-opacity:1"
         id="path5176" /><path
         d="m 176.42331,-160.09376 1.66093,0 0,11.60156 -1.66093,0 0,-11.60156 z"
         style="fill:#bdbdbd;fill-opacity:1"
         id="path5178" /><path
         d="m 185.80754,-160.24325 q 1.59449,0 2.63257,1.67754 1.04638,1.66923 1.04638,4.24366 0,2.64087 -1.04638,4.29349 -1.03808,1.65262 -2.69901,1.65262 -1.68583,0 -2.7073,-1.6194 -1.02147,-1.6194 -1.02147,-4.29349 0,-2.64087 1.05468,-4.29349 1.05469,-1.66093 2.74053,-1.66093 z m 0.0166,1.57788 -0.0831,0 q -0.95503,0 -1.51974,1.17926 -0.55641,1.17095 -0.55641,3.18067 0,2.05955 0.5481,3.2305 0.54811,1.17095 1.51144,1.17095 0.96334,0 1.51975,-1.17095 0.55641,-1.17095 0.55641,-3.18067 0,-2.01803 -0.5398,-3.21389 -0.5315,-1.19587 -1.4367,-1.19587 z"
         style="fill:#bdbdbd;fill-opacity:1"
         id="path5180" /><path
         d="m 277.7085,-533.54029 4.41806,0 0,1.60279 -7.34129,0 0,-0.11626 0.69759,-0.82216 q 1.63601,-2.02633 2.59935,-3.43812 0.97164,-1.41178 1.2623,-2.13429 0.29897,-0.7225 0.29897,-1.42839 0,-0.97995 -0.55641,-1.56958 -0.55641,-0.59793 -1.47822,-0.59793 -0.69759,0 -1.37857,0.41523 -0.67268,0.40693 -1.21248,1.15434 l 0,-2.10937 q 1.35366,-1.10452 2.79036,-1.10452 1.51974,0 2.49969,1.01317 0.98825,1.01316 0.98825,2.57443 0,0.69759 -0.24914,1.49484 -0.24083,0.78893 -0.86368,1.82701 -0.62285,1.02978 -2.11768,2.81527 l -0.3571,0.42354 z"
         style="fill:#feb24c;fill-opacity:1"
         id="path5182" /><path
         d="m 284.42694,-543.53906 5.14887,0 0,1.47822 -3.63742,0 0,2.93153 q 0.17439,-0.0166 0.35709,-0.0166 1.68584,0 2.77375,1.02978 1.08791,1.02147 1.08791,2.60765 0,1.63601 -1.07961,2.66579 -1.07129,1.02146 -2.78205,1.02146 -1.41178,0 -2.74052,-0.68097 l 0,-1.71076 q 1.254,0.81386 2.44986,0.81386 1.04639,0 1.75228,-0.60624 0.7142,-0.61454 0.7142,-1.50314 0,-0.92181 -0.77233,-1.53635 -0.77233,-0.62285 -1.92668,-0.62285 -0.98825,0 -1.34535,0.16609 l 0,-6.03746 z"
         style="fill:#feb24c;fill-opacity:1"
         id="path5184" /><path
         d="m 216.9077,-379.20316 1.66093,0 0,11.60157 -1.66093,0 0,-11.60157 z"
         style="fill:#bdbdbd;fill-opacity:1"
         id="path5186" /><path
         d="m 227.19714,-379.23637 0.16609,-0.11627 1.00486,1.27061 q -1.32874,0.85538 -2.20903,1.86854 -0.87199,1.01316 -1.34535,2.38343 0.92181,-0.47337 1.83532,-0.47337 1.37026,0 2.30869,0.97165 0.93842,0.97164 0.93842,2.38342 0,1.45331 -1.02147,2.46648 -1.02147,1.01316 -2.48308,1.01316 -1.63601,0 -2.64918,-1.14604 -1.00486,-1.15434 -1.00486,-3.01458 0,-1.39517 0.51489,-2.77374 0.52319,-1.38687 1.49483,-2.59104 0.97995,-1.21248 2.44987,-2.24225 z m -2.74053,7.12537 q -0.0664,0.39031 -0.0664,0.87198 0,0.97995 0.56472,1.6111 0.57302,0.63115 1.46161,0.63115 0.79724,0 1.31213,-0.5398 0.52319,-0.5398 0.52319,-1.36196 0,-0.83877 -0.55641,-1.35365 -0.5481,-0.52319 -1.45331,-0.52319 -0.46506,0 -0.84707,0.14117 -0.37371,0.14118 -0.93842,0.5232 z"
         style="fill:#bdbdbd;fill-opacity:1"
         id="path5188" /><path
         d="m 210.16161,-324.42581 1.66093,0 0,11.60156 -1.66093,0 0,-11.60156 z"
         style="fill:#bdbdbd;fill-opacity:1"
         id="path5190" /><path
         d="m 216.94649,-324.42581 5.14887,0 0,1.47822 -3.63743,0 0,2.93153 q 0.1744,-0.0166 0.3571,-0.0166 1.68584,0 2.77375,1.02977 1.0879,1.02147 1.0879,2.60765 0,1.63601 -1.0796,2.66579 -1.0713,1.02147 -2.78205,1.02147 -1.41179,0 -2.74053,-0.68098 l 0,-1.71076 q 1.254,0.81386 2.44987,0.81386 1.04638,0 1.75227,-0.60624 0.7142,-0.61454 0.7142,-1.50314 0,-0.92181 -0.77233,-1.53635 -0.77233,-0.62285 -1.92667,-0.62285 -0.98825,0 -1.34535,0.16609 l 0,-6.03746 z"
         style="fill:#bdbdbd;fill-opacity:1"
         id="path5192" /><path
         d="m 189.91941,-214.87111 1.66092,0 0,11.60156 -1.66092,0 0,-11.60156 z"
         style="fill:#bdbdbd;fill-opacity:1"
         id="path5194" /><path
         d="m 198.4898,-204.87234 4.41806,0 0,1.60279 -7.34129,0 0,-0.11626 0.69759,-0.82216 q 1.63601,-2.02633 2.59934,-3.43811 0.97165,-1.41179 1.26231,-2.13429 0.29896,-0.72251 0.29896,-1.4284 0,-0.97994 -0.55641,-1.56957 -0.55641,-0.59794 -1.47822,-0.59794 -0.69759,0 -1.37857,0.41524 -0.67267,0.40692 -1.21247,1.15434 l 0,-2.10938 q 1.35365,-1.10451 2.79035,-1.10451 1.51975,0 2.49969,1.01316 0.98826,1.01317 0.98826,2.57444 0,0.69758 -0.24914,1.49483 -0.24084,0.78894 -0.86368,1.82702 -0.62285,1.02977 -2.11768,2.81526 l -0.3571,0.42354 z"
         style="fill:#bdbdbd;fill-opacity:1"
         id="path5196" /><path
         d="m 381.46016,-571.07533 0.68098,0 0,6.51083 1.29552,0 0,1.41179 -1.29552,0 0,3.82843 -1.6194,0 0,-3.82843 -4.90803,0 0,-0.7142 5.84645,-7.20842 z m -0.93842,6.51083 0,-3.36337 -2.68239,3.36337 2.68239,0 z"
         style="fill:#bdbdbd;fill-opacity:1"
         id="path5198" /><path
         d="m 388.24504,-571.07533 q 1.59449,0 2.63257,1.67754 1.04638,1.66923 1.04638,4.24366 0,2.64087 -1.04638,4.29349 -1.03808,1.65262 -2.69901,1.65262 -1.68583,0 -2.7073,-1.6194 -1.02147,-1.6194 -1.02147,-4.29349 0,-2.64087 1.05468,-4.29349 1.05469,-1.66093 2.74053,-1.66093 z m 0.0166,1.57788 -0.083,0 q -0.95503,0 -1.51974,1.17926 -0.55641,1.17095 -0.55641,3.18067 0,2.05955 0.5481,3.2305 0.54811,1.17095 1.51144,1.17095 0.96334,0 1.51975,-1.17095 0.55641,-1.17095 0.55641,-3.18067 0,-2.01802 -0.5398,-3.21389 -0.5315,-1.19587 -1.4367,-1.19587 z"
         style="fill:#bdbdbd;fill-opacity:1"
         id="path5200" /><path
         d="m 176.42333,-187.48439 1.66092,0 0,11.60156 -1.66092,0 0,-11.60156 z"
         style="fill:#bdbdbd;fill-opacity:1"
         id="path5202" /><path
         d="m 185.80756,-187.63387 q 1.59448,0 2.63256,1.67753 1.04639,1.66923 1.04639,4.24366 0,2.64088 -1.04639,4.2935 -1.03808,1.65262 -2.699,1.65262 -1.68584,0 -2.70731,-1.61941 -1.02147,-1.6194 -1.02147,-4.29349 0,-2.64087 1.05469,-4.29349 1.05469,-1.66092 2.74053,-1.66092 z m 0.0166,1.57788 -0.0831,0 q -0.95503,0 -1.51975,1.17925 -0.55641,1.17095 -0.55641,3.18067 0,2.05955 0.54811,3.2305 0.5481,1.17096 1.51144,1.17096 0.96334,0 1.51975,-1.17096 0.55641,-1.17095 0.55641,-3.18067 0,-2.01802 -0.5398,-3.21389 -0.5315,-1.19586 -1.4367,-1.19586 z"
         style="fill:#bdbdbd;fill-opacity:1"
         id="path5204" /><path
         d="m 223.6577,-433.98047 1.66093,0 0,11.60156 -1.66093,0 0,-11.60156 z"
         style="fill:#bdbdbd;fill-opacity:1"
         id="path5206" /><path
         d="m 229.55397,-433.98047 7.50738,0 -5.25682,11.73444 -1.47823,-0.62285 4.25197,-9.5254 -5.0243,0 0,-1.58619 z"
         style="fill:#bdbdbd;fill-opacity:1"
         id="path5208" /><path
         d="m 203.4155,-297.03906 1.66093,0 0,11.60156 -1.66093,0 0,-11.60156 z"
         style="fill:#bdbdbd;fill-opacity:1"
         id="path5210" /><path
         d="m 214.51879,-297.18855 0.68098,0 0,6.51083 1.29552,0 0,1.41179 -1.29552,0 0,3.82843 -1.61941,0 0,-3.82843 -4.90803,0 0,-0.7142 5.84646,-7.20842 z m -0.93843,6.51083 0,-3.36337 -2.68239,3.36337 2.68239,0 z"
         style="fill:#bdbdbd;fill-opacity:1"
         id="path5212" /><path
         d="m 173.66589,-120.96869 -1.02147,-1.20417 q 1.28721,-0.81385 2.25055,-1.9682 0.96334,-1.16264 1.28722,-2.38342 -0.78894,0.48997 -1.85193,0.48997 -1.32874,0 -2.28378,-0.98825 -0.94672,-0.98825 -0.94672,-2.37512 0,-1.44501 1.01316,-2.44987 1.01317,-1.00486 2.47478,-1.00486 1.64432,0 2.6907,1.18756 1.04638,1.18757 1.04638,3.0478 0,2.10938 -1.31213,4.26858 -1.31213,2.1509 -3.34676,3.37998 z m 2.84018,-7.20841 q 0.0996,-0.66437 0.0996,-0.86368 0,-1.00486 -0.56471,-1.64432 -0.55641,-0.63946 -1.4367,-0.63946 -0.80555,0 -1.33705,0.54811 -0.52319,0.5398 -0.52319,1.36196 0,0.75572 0.57302,1.30382 0.57302,0.54811 1.37026,0.54811 0.93012,0 1.81872,-0.61454 z"
         style="fill:#bdbdbd;fill-opacity:1"
         id="path5214" /><path
         d="m 210.16161,-351.81641 1.66093,0 0,11.60157 -1.66093,0 0,-11.60157 z"
         style="fill:#bdbdbd;fill-opacity:1"
         id="path5216" /><path
         d="m 216.94649,-351.81641 5.14887,0 0,1.47823 -3.63743,0 0,2.93153 q 0.1744,-0.0166 0.3571,-0.0166 1.68584,0 2.77375,1.02977 1.0879,1.02147 1.0879,2.60766 0,1.63601 -1.0796,2.66578 -1.0713,1.02147 -2.78205,1.02147 -1.41179,0 -2.74053,-0.68098 l 0,-1.71075 q 1.254,0.81385 2.44987,0.81385 1.04638,0 1.75227,-0.60624 0.7142,-0.61454 0.7142,-1.50313 0,-0.92182 -0.77233,-1.53636 -0.77233,-0.62285 -1.92667,-0.62285 -0.98825,0 -1.34535,0.1661 l 0,-6.03747 z"
         style="fill:#bdbdbd;fill-opacity:1"
         id="path5218" /></g><text
       id="text5031"
       style="font-variant:normal;font-weight:normal;font-size:12.80000019px;font-family:'Gill Sans MT';-inkscape-font-specification:GillSansMT;writing-mode:lr-tb;fill:#000000;fill-opacity:1;fill-rule:nonzero;stroke:none"
       transform="scale(1,-1)"
       x="58.769531"
       y="-40.296875"><tspan
         id="tspan5033"
         sodipodi:role="line"
         y="-40.296875"
         x="58.769531 68.907127 74.449532 81.067131 86.199928 89.041527">Madrid</tspan><tspan
         id="tspan5035"
         sodipodi:role="line"
         y="-67.683594"
         x="34.121094 42.773895 52.783497 57.775497 62.114697 68.335495 73.468292 80.085892 85.628296">Amsterdam</tspan><tspan
         id="tspan5037"
         sodipodi:role="line"
         y="-95.074219"
         x="49.566406 59.038406 66.206406 72.708809 77.700806 82.027206 89.195206">Houston</tspan><tspan
         id="tspan5039"
         sodipodi:role="line"
         y="-122.46093"
         x="39.796871 45.748871 50.075272 57.243271 62.926472 69.14727 75.649673 82.817673 85.659271">Stockholm</tspan><tspan
         id="tspan5041"
         sodipodi:role="line"
         y="-149.85156"
         x="38.445305 48.582909 54.816505 57.658108 64.160507 71.328506 77.818108 82.963707 89.453308">Melbourne</tspan><tspan
         id="tspan5043"
         sodipodi:role="line"
         y="-177.24219"
         x="39.980461 50.118061 56.351662 65.695663 69.292465 77.151665 84.306862 89.452461">New York</tspan><tspan
         id="tspan5045"
         sodipodi:role="line"
         y="-204.62891"
         x="51.175777 61.313377 68.481377 73.473373 79.156578 86.311775">Moscow</tspan><tspan
         id="tspan5047"
         sodipodi:role="line"
         y="-232.01953"
         x="32.535149 38.90955 46.064751 51.056751 54.666351 63.319149 69.821548 75.363953 81.584747 84.426346 90.65995">Los Angeles</tspan><tspan
         id="tspan5049"
         sodipodi:role="line"
         y="-259.40625"
         x="25.488277 32.797077 39.299477 45.520275 52.022678 59.190678 64.182678 67.77948 76.432274 79.286674 84.419479 90.640274">Buenos Aires</tspan><tspan
         id="tspan5051"
         sodipodi:role="line"
         y="-286.79688"
         x="44.062496 50.014496 55.556896 62.712097 66.321701 72.939301 78.468895 85.636894 88.4785">Sao Paolo</tspan><tspan
         id="tspan5053"
         sodipodi:role="line"
         y="-314.18359"
         x="47.792969 57.930569 65.098564 71.600967 75.927368 81.060165 87.29377 92.823364">Montreal</tspan><tspan
         id="tspan5055"
         sodipodi:role="line"
         y="-341.57422"
         x="50.371094 58.217491 65.38549 70.518295 77.686295 84.18869 88.515091">Toronto</tspan><tspan
         id="tspan5057"
         sodipodi:role="line"
         y="-368.96094"
         x="67.820305 77.957909 80.812309 83.653908 89.196304">Milan</tspan><tspan
         id="tspan5059"
         sodipodi:role="line"
         y="-396.35156"
         x="55.374996 61.749397 68.904594 75.406998 82.024597 89.192596">London</tspan><tspan
         id="tspan5061"
         sodipodi:role="line"
         y="-423.73828"
         x="70.542969 77.160568 82.702972 87.83577 90.677368">Paris</tspan><tspan
         id="tspan5063"
         sodipodi:role="line"
         y="-451.12891"
         x="25.324219 28.575418 35.74342 42.233017 47.775417 54.277821 60.78022 67.001022 71.993019 78.495415 84.997818 90.130615">Johannesburg</tspan><tspan
         id="tspan5065"
         sodipodi:role="line"
         y="-478.51953"
         x="61.574215 68.883018 75.103813 77.958214 80.799812 83.654213 90.143814">Beijing</tspan><tspan
         id="tspan5067"
         sodipodi:role="line"
         y="-505.90625"
         x="64.824211 72.133011 78.353813 83.48661 86.341011 89.18261">Berlin</tspan><tspan
         id="tspan5069"
         sodipodi:role="line"
         y="-533.29688"
         x="31.4375 41.5751 47.808701 54.298298 57.152699 62.835899 69.991096 73.6007 82.803902 85.6455 89.971901">Mexico City</tspan><tspan
         id="tspan5071"
         sodipodi:role="line"
         y="-560.68359"
         x="38.203117 48.340717 54.574318 63.91832 67.515121 77.268715 83.489517 86.343918 92.846313">New Delhi</tspan></text>
<text
       id="text5073"
       style="font-variant:normal;font-weight:normal;font-size:16px;font-family:'Gill Sans MT';-inkscape-font-specification:GillSansMT;writing-mode:lr-tb;fill:#000000;fill-opacity:1;fill-rule:nonzero;stroke:none"
       transform="scale(1,-1)"
       x="241.29688"
       y="-10.800781"><tspan
         id="tspan5075"
         sodipodi:role="line"
         y="-10.800781"
         x="241.29688 252.09686 256.52887 265.34488 269.34488 273.77686 285.10486 293.92087 306.24088 318.56088 326.56088 331.88889 339.55286 345.87286 352.01688 356.44888 373.10486 381.10486 389.92087 394.35287 411.00888 419.82486 427.82486 431.32886 439.47287 443.90488 453.56888 460.38486 465.71286 473.71286 481.37686 487.69687 492.12888 508.78488 517.60083 523.92084 531.58484 536.01685 545.68085 553.68085 560.49689 568.49689 572.92883 584.25684 593.07288 605.39288 617.71283 625.71283 631.04083">% of Commuters Who Would Rather Work Than Commute</tspan></text>
<text
       id="text5077"
       style="font-variant:normal;font-weight:normal;font-size:19.20000076px;font-family:'Gill Sans MT';-inkscape-font-specification:GillSansMT;writing-mode:lr-tb;fill:#000000;fill-opacity:1;fill-rule:nonzero;stroke:none"
       transform="scale(1,-1)"
       x="379.22266"
       y="-581.04688"><tspan
         id="tspan5079"
         sodipodi:role="line"
         y="-581.04688"
         x="379.22266 388.89944 396.40665 405.50745 410.24985 419.35065 426.85785 432.11865 438.43546 448.91867 454.17947 473.95547 484.41946 491.92667">Prefer to Work</tspan></text>
</g></svg>