<?xml version="1.0" encoding="UTF-8" standalone="no"?>
<svg width="36px" height="23px" viewBox="0 0 36 23" version="1.1" xmlns="http://www.w3.org/2000/svg" xmlns:xlink="http://www.w3.org/1999/xlink">
    <!-- Generator: Sketch 3.6.1 (26313) - http://www.bohemiancoding.com/sketch -->
    <title>quote-left</title>
    <desc>Created with Sketch.</desc>
    <defs></defs>
    <g id="Page-1" stroke="none" stroke-width="1" fill="none" fill-rule="evenodd">
        <g id="quote-left">
            <g id="design">
                <g id="Arrow_Down_Grey"></g>
                <g id="Group" transform="translate(1.000000, 0.000000)" stroke="#1A4B6B">
                    <path d="M9.881,15.239 C6.969,16.129 9.526,22.369 13.08,22.369 C11.215,22.369 2.637,20.289 0.644,13.615 C-0.026,11.38 0.144,10.365 0.144,9.326 C0.144,4.299 3.833,0.875 7.88,0.875 C11.923,0.875 15.202,4.153 15.202,8.198 C15.203,11.516 12.791,14.352 9.881,15.239 L9.881,15.239 Z" id="Shape"></path>
                    <path d="M32.08,22.369 C30.215,22.369 21.637,20.289 19.644,13.615 C18.974,11.38 19.144,10.365 19.144,9.326 C19.144,4.299 22.833,0.875 26.88,0.875 C30.923,0.875 34.202,4.153 34.202,8.198 C34.203,11.516 31.791,14.352 28.881,15.239 C25.969,16.129 28.526,22.369 32.08,22.369 Z" id="Shape"></path>
                </g>
            </g>
        </g>
    </g>
</svg>