<?xml version="1.0" encoding="UTF-8" standalone="no"?>
<svg width="36px" height="24px" viewBox="0 0 36 24" version="1.1" xmlns="http://www.w3.org/2000/svg" xmlns:xlink="http://www.w3.org/1999/xlink">
    <!-- Generator: Sketch 3.6.1 (26313) - http://www.bohemiancoding.com/sketch -->
    <title>quote-right</title>
    <desc>Created with Sketch.</desc>
    <defs></defs>
    <g id="Page-1" stroke="none" stroke-width="1" fill="none" fill-rule="evenodd">
        <g id="quote-right">
            <g id="design">
                <g id="Arrow_Down_Grey"></g>
                <g id="Group" transform="translate(0.000000, 1.000000)" stroke="#1A4B6B">
                    <path d="M25.285,7.383 C28.195,6.493 25.639,0.253 22.086,0.253 C23.949,0.253 32.529,2.333 34.522,9.007 C35.19,11.242 35.022,12.257 35.022,13.296 C35.022,18.323 31.331,21.747 27.286,21.747 C23.241,21.747 19.962,18.469 19.962,14.424 C19.96,11.106 22.374,8.271 25.285,7.383 L25.285,7.383 Z" id="Shape"></path>
                    <path d="M6.285,7.383 C9.195,6.493 6.639,0.253 3.086,0.253 C4.949,0.253 13.529,2.333 15.522,9.007 C16.19,11.242 16.022,12.257 16.022,13.296 C16.022,18.323 12.331,21.747 8.286,21.747 C4.241,21.747 0.962,18.469 0.962,14.424 C0.96,11.106 3.374,8.271 6.285,7.383 L6.285,7.383 Z" id="Shape"></path>
                </g>
            </g>
        </g>
    </g>
</svg>